Coordinates
version=1
nRows=21
nColumns=22
inDegrees=yes

Units are S.I. units (second, meters, Newtons, ...)
If the header above contains a line with 'inDegrees', this indicates whether rotational values are in degrees (yes) or radians (no).

endheader
time	pelvis_tilt	pelvis_list	pelvis_rotation	pelvis_tx	pelvis_ty	pelvis_tz	hip_flexion_r	hip_adduction_r	hip_rotation_r	knee_angle_r	ankle_angle_r	subtalar_angle_r	hip_flexion_l	hip_adduction_l	hip_rotation_l	knee_angle_l	ankle_angle_l	subtalar_angle_l	lumbar_extension	lumbar_bending	lumbar_rotation
      2.83000000	     -3.93259294	     -6.43547810	      2.56987826	      0.08293192	      0.94767541	     -0.28090918	      5.84297490	      9.12356578	     -3.07053450	    -27.74826895	     18.04017321	      3.85941346	     30.28024133	     -7.11156316	      5.39125200	    -17.20909866	      7.43581137	      3.15933138	     -2.09823364	      5.86635448	     -0.84018069
      2.84000000	     -3.77087860	     -6.27662671	      2.70436737	      0.07602407	      0.94946020	     -0.27988360	      6.01867192	      9.03002547	     -3.21279381	    -27.52594792	     17.70153954	      3.62885227	     30.16317187	     -6.83347003	      5.37996567	    -18.47229603	      7.56441019	      3.18717058	     -2.24188656	      5.74038661	     -0.97080659
      2.85000000	     -3.61126809	     -6.10599980	      2.82202910	      0.06923632	      0.95128728	     -0.27890772	      6.17753001	      8.91442903	     -3.34546037	    -27.28795943	     17.34500904	      3.44885365	     29.99669254	     -6.54286490	      5.42321077	    -19.77558422	      7.78015597	      3.30127787	     -2.37493350	      5.59781078	     -1.08233132
      2.86000000	     -3.46299641	     -5.92649256	      2.92805430	      0.06256537	      0.95311738	     -0.27802119	      6.31848731	      8.77590590	     -3.47672650	    -27.01386933	     16.99963342	      3.33687797	     29.78868512	     -6.23494125	      5.52691071	    -21.10328915	      8.08280402	      3.45871540	     -2.48706355	      5.44808993	     -1.16707045
      2.87000000	     -3.32210218	     -5.74875579	      3.00988977	      0.05596448	      0.95492546	     -0.27716584	      6.45951569	      8.63345207	     -3.59152075	    -26.73732139	     16.63887060	      3.22873212	     29.54193375	     -5.93304117	      5.66075293	    -22.45098239	      8.43973863	      3.70983414	     -2.58957688	      5.29837869	     -1.23489237
      2.88000000	     -3.19190200	     -5.57201125	      3.06150795	      0.04943828	      0.95668490	     -0.27634778	      6.60016457	      8.48550299	     -3.68637751	    -26.45305341	     16.27936194	      3.14134864	     29.25978355	     -5.64242767	      5.79269505	    -23.81104094	      8.84128373	      4.00553619	     -2.67774114	      5.15103251	     -1.27385284
      2.89000000	     -3.07235488	     -5.40108790	      3.08004791	      0.04296856	      0.95836809	     -0.27551745	      6.74890110	      8.34355247	     -3.75340721	    -26.17511506	     15.91853474	      3.06877675	     28.94500414	     -5.37701704	      5.90074887	    -25.17515715	      9.26677580	      4.33098129	     -2.75446970	      5.00421979	     -1.28889152
      2.90000000	     -2.96640044	     -5.24558032	      3.07470980	      0.03657886	      0.95994531	     -0.27471376	      6.89095433	      8.21430207	     -3.80535988	    -25.87429270	     15.59095308	      3.02199916	     28.60260747	     -5.14220690	      5.98468729	    -26.53721800	      9.71833088	      4.60328025	     -2.81045980	      4.87524556	     -1.26958474
      2.91000000	     -2.87538936	     -5.09308807	      3.03089302	      0.03019664	      0.96138263	     -0.27389754	      7.07228913	      8.08394201	     -3.84624562	    -25.62526314	     15.27648625	      3.00903827	     28.23357252	     -4.93790016	      6.01683463	    -27.88730852	     10.17162247	      4.74273085	     -2.85642086	      4.74665109	     -1.22250677
      2.92000000	     -2.79236189	     -4.97170876	      2.98574505	      0.02388585	      0.96270198	     -0.27305358	      7.21941882	      7.99918364	     -3.85366932	    -25.30848971	     14.94505137	      2.90611282	     27.85069707	     -4.79355870	      5.98564008	    -29.23793748	     10.62368339	      5.20041471	     -2.88592160	      4.64458804	     -1.20496945
      2.93000000	     -2.72672988	     -4.88517290	      2.91943550	      0.01759089	      0.96383430	     -0.27219024	      7.38641032	      7.95347469	     -3.84415420	    -25.00204384	     14.66760468	      2.87724888	     27.45381150	     -4.71199638	      5.91064728	    -30.57053078	     11.06931602	      5.31101166	     -2.89653808	      4.57741777	     -1.17058903
      2.94000000	     -2.66826203	     -4.82013579	      2.84979992	      0.01129905	      0.96479929	     -0.27132306	      7.56256237	      7.93247043	     -3.83659765	    -24.70185543	     14.39404117	      2.79527715	     27.03789666	     -4.68159728	      5.78170409	    -31.88429128	     11.49815098	      5.48499319	     -2.90207405	      4.53031513	     -1.14570217
      2.95000000	     -2.62611466	     -4.76437184	      2.77961477	      0.00499671	      0.96556663	     -0.27046251	      7.76932142	      7.91538578	     -3.86226703	    -24.43009723	     14.17656031	      2.74611017	     26.60591587	     -4.68337245	      5.61990657	    -33.16745721	     11.91281114	      5.51687931	     -2.89353001	      4.48787873	     -1.12494579
      2.96000000	     -2.59085115	     -4.75417586	      2.71816299	     -0.00130164	      0.96616774	     -0.26960227	      7.96380410	      7.95570015	     -3.85939750	    -24.12176629	     13.96415557	      2.65561705	     26.16728437	     -4.76262327	      5.40843147	    -34.43823897	     12.29028014	      5.55222422	     -2.87567057	      4.49310286	     -1.13484863
      2.97000000	     -2.56754220	     -4.77513907	      2.67489948	     -0.00760095	      0.96661164	     -0.26873875	      8.15524331	      8.03671025	     -3.84432013	    -23.78315029	     13.75093813	      2.47445139	     25.72050009	     -4.89915595	      5.17063337	    -35.68167615	     12.61246770	      5.59789280	     -2.84431792	      4.52514038	     -1.19626285
      2.98000000	     -2.54617569	     -4.80589640	      2.65144669	     -0.01392730	      0.96689513	     -0.26795111	      8.37800338	      8.11444625	     -3.89042698	    -23.49512924	     13.57401100	      2.20208347	     25.24930878	     -5.05920319	      4.92621825	    -36.89152565	     12.91424121	      5.59101187	     -2.81399640	      4.56955539	     -1.26978683
      2.99000000	     -2.53098277	     -4.86189073	      2.63717312	     -0.02027017	      0.96704685	     -0.26720265	      8.62165812	      8.21365188	     -3.92175363	    -23.23330676	     13.46354420	      2.15478423	     24.75865461	     -5.26410249	      4.67129268	    -38.06609484	     13.18715364	      5.49893727	     -2.77810237	      4.64005207	     -1.36769512
      3.00000000	     -2.51732370	     -4.96659745	      2.65037852	     -0.02661368	      0.96710466	     -0.26651699	      8.87569455	      8.35754454	     -3.97269203	    -22.97882607	     13.33904209	      2.08191929	     24.25308874	     -5.52910411	      4.43497574	    -39.20957480	     13.40867475	      5.38296207	     -2.73600057	      4.76575393	     -1.50259578
      3.01000000	     -2.51457482	     -5.10212438	      2.70089102	     -0.03294452	      0.96709211	     -0.26592006	      9.15111461	      8.52423943	     -4.03860023	    -22.73575668	     13.19215919	      1.99017475	     23.73657565	     -5.82548050	      4.23177795	    -40.30961964	     13.57470984	      5.21571947	     -2.67271178	      4.92629014	     -1.70777470
      3.02000000	     -2.50537238	     -5.25930884	      2.76976336	     -0.03927893	      0.96703338	     -0.26539413	      9.46216663	      8.69457241	     -4.15050899	    -22.56338911	     13.08944200	      1.98750378	     23.18881745	     -6.14884501	      4.05235907	    -41.36848998	     13.72097170	      5.04414047	     -2.61206263	      5.11093824	     -1.92493416
      3.03000000	     -2.49762103	     -5.44862923	      2.87256067	     -0.04559496	      0.96695440	     -0.26496372	      9.79860281	      8.87990090	     -4.29928561	    -22.42930465	     12.98657634	      2.07365337	     22.62415436	     -6.49594559	      3.92616401	    -42.38661253	     13.82532001	      4.84775827	     -2.53913559	      5.33136036	     -2.18016350
